<?xml version="1.0" encoding="UTF-8"?>
<svg width="25px" height="25px" viewBox="0 0 25 25" version="1.1" xmlns="http://www.w3.org/2000/svg" xmlns:xlink="http://www.w3.org/1999/xlink">
    <title>check copy 4</title>
    <g id="Web-Facebook" stroke="none" stroke-width="1" fill="none" fill-rule="evenodd">
        <g id="Login" transform="translate(-84.000000, -303.000000)" fill="#FFFFFF" fill-rule="nonzero">
            <g id="check-copy-4" transform="translate(84.000000, 303.000000)">
                <path d="M12.5,0 C19.3701172,0 25,5.62988281 25,12.5 C25,19.3701172 19.3701172,25 12.5,25 C5.62988281,25 0,19.3701172 0,12.5 C0,5.62988281 5.62988281,0 12.5,0 Z M18.3115306,7.8125 L12.5920078,12.7765098 L11.1435226,14.0317767 L7.57440214,10.6225385 L5.46875,12.6338659 L11.0538229,17.96875 L12.5920078,16.6278968 L20.3125,9.92363062 L18.3115306,7.8125 Z" id="Combined-Shape" opacity="0.225725446"></path>
                <path d="M12,0 C19.1449219,0 25,5.62988281 25,12.5 C25,19.3701172 19.1449219,25 12,25 L12,16.707 L12.0956881,16.6278968 L20.125,9.92363062 L18.0439919,7.8125 L12.0956881,12.7765098 L12,12.855 L12,0 Z" id="Combined-Shape" opacity="0.166596912"></path>
            </g>
        </g>
    </g>
</svg>