<?xml version="1.0" encoding="UTF-8"?>
<svg width="10px" height="18px" viewBox="0 0 10 18" version="1.1" xmlns="http://www.w3.org/2000/svg" xmlns:xlink="http://www.w3.org/1999/xlink">
    <title>Group 19</title>
    <g id="Web-Facebook" stroke="none" stroke-width="1" fill="none" fill-rule="evenodd">
        <g id="01-Topmarq_Home-Copy" transform="translate(-326.000000, -144.000000)" fill="#FFFFFF">
            <g id="Groups" transform="translate(30.000000, 87.000000)">
                <g id="Group-3" transform="translate(0.000000, 44.000000)">
                    <g id="Group-19" transform="translate(301.000000, 22.000000) rotate(-90.000000) translate(-301.000000, -22.000000) translate(292.000000, 17.000000)">
                        <rect id="Rectangle" transform="translate(5.000000, 5.000000) rotate(-315.000000) translate(-5.000000, -5.000000) " x="-1" y="4" width="12" height="2" rx="1"></rect>
                        <path d="M7.09328727,4 L17.0932873,4 C17.645572,4 18.0932873,4.44771525 18.0932873,5 C18.0932873,5.55228475 17.645572,6 17.0932873,6 L7.09328727,6 C6.54100252,6 6.09328727,5.55228475 6.09328727,5 C6.09328727,4.44771525 6.54100252,4 7.09328727,4 Z" id="Rectangle" transform="translate(12.093287, 5.000000) scale(-1, 1) rotate(-315.000000) translate(-12.093287, -5.000000) "></path>
                    </g>
                </g>
            </g>
        </g>
    </g>
</svg>