<?xml version="1.0" encoding="UTF-8"?>
<svg width="345px" height="26px" viewBox="0 0 345 26" version="1.1" xmlns="http://www.w3.org/2000/svg" xmlns:xlink="http://www.w3.org/1999/xlink">
    <title>Shape</title>
    <g id="Web-Facebook" stroke="none" stroke-width="1" fill="none" fill-rule="evenodd">
        <g id="Signup" transform="translate(-36.000000, -272.000000)" fill="#FFFFFF">
            <g id="BG" transform="translate(0.000000, -2.000000)">
                <g id="Group-2" transform="translate(22.000000, 94.500000)">
                    <g id="Group-6">
                        <g id="Group" transform="translate(14.000000, 179.500000)">
                            <path d="M172.967825,9.52127266e-13 C180.269865,0.0182702703 185.89594,5.915 185.974512,12.8242365 C186.056339,20.0153446 180.215973,25.9438277 173.006803,25.957158 C165.959351,25.9701351 160.010586,20.2667365 159.999986,12.9892399 C159.989733,5.89044932 165.73195,0.0366722973 172.967825,9.52127266e-13 Z M172.977987,1.24720215 C166.473764,1.25133784 161.256782,6.52318919 161.240065,12.9735608 C161.250887,19.4625811 166.509046,24.7143176 172.985642,24.7143176 C179.507858,24.7143176 184.72176,19.412777 184.731612,12.997848 C184.741381,6.58977027 179.547364,1.24303716 172.977987,1.24720215 Z M173.881102,2.98295552 C177.891014,3.27274215 181.106989,5.8339687 182.536129,9.20872263 C182.691203,9.57487886 182.830399,9.94699173 182.94,10.3298621 L183.000028,10.5581708 L182.876445,10.5800859 L174.3,10.581 L172.387119,21.6508401 C172.374703,21.7230049 172.352062,21.7948425 172.384198,21.8814496 L172.500111,21.9007527 C172.897601,21.9436589 173.294489,21.935059 173.692967,21.9055668 C174.173675,21.8699985 174.648068,21.7966653 175.116275,21.6755182 C177.109008,21.1598019 178.753616,20.0338166 180.05057,18.3119111 C180.991021,17.0632831 181.599715,15.6386366 181.890658,14.0556857 C182.01903,13.3575477 182.07819,12.6505293 182.058942,11.9381827 C182.051839,11.6742952 182.036487,11.4107609 182.009679,11.1483414 L181.960472,10.7556434 C181.955102,10.7198414 181.954715,10.6831982 181.950462,10.6265507 L182.035334,10.6029844 L182.035334,10.6029844 L182.048545,10.6019193 C182.288878,10.6000031 182.529211,10.5979465 182.7695,10.6007976 C182.879657,10.6021063 182.900493,10.6259898 182.914156,10.7426967 C183.001756,11.4936964 183.025772,12.2456308 182.970222,13.0018651 C182.811432,15.1635363 182.125191,17.10446 180.893969,18.8049124 C179.391997,20.8792754 177.445663,22.1913748 175.068285,22.7371909 C174.25075,22.9249408 173.423334,22.9899078 172.590762,22.9420005 C171.40826,22.8739488 170.269537,22.5890755 169.181208,22.0756962 C169.125185,22.0492887 169.070666,22.0188617 169.020614,21.9929217 C168.983452,21.9107081 169.005491,21.8370944 169.018079,21.7650231 L170.57616,12.8282771 C170.598888,12.696941 170.648037,12.602622 170.757248,12.5250355 L173.47589,10.5815303 L164.66691,10.5815973 L164.368141,10.5869316 C164.345251,10.6402303 164.320728,10.6831271 164.307982,10.7292689 C164.155951,11.2780365 164.046703,11.8351167 164.007008,12.4041102 C163.987249,12.6875401 163.969342,12.9719036 163.970048,13.255778 C163.973797,14.792016 164.33643,16.2387265 165.057109,17.592131 C165.698486,18.7965673 166.559411,19.8050521 167.630914,20.6237487 L168.120082,20.9801318 C168.068038,21.3122373 167.990942,21.6284288 167.933561,21.939197 C167.893522,21.9645084 167.86409,21.9594781 167.838367,21.9460367 L167.789822,21.9144369 C167.357636,21.6441206 166.948207,21.3421095 166.563918,21.0064033 C164.916237,19.5668941 163.817753,17.7848331 163.289064,15.6494626 C163.167686,15.1592836 163.090282,14.6617254 163.043354,14.1581661 C162.992324,13.6112656 162.987384,13.0636982 163.023198,12.5175533 C163.089708,11.5044337 163.305427,10.5217641 163.666163,9.57261177 C163.931985,8.87310536 164.268287,8.210139 164.677451,7.58486846 L164.823924,7.37238494 L164.995185,7.36340551 L179.968942,7.36229419 C180.057947,7.36224974 180.149509,7.3775859 180.230751,7.34642461 C180.249109,7.30114962 180.235043,7.27220263 180.215102,7.24790024 L179.744599,6.73359751 C179.668576,6.65289954 179.591181,6.57366028 179.511174,6.49720178 C178.204249,5.24812763 176.667272,4.44544669 174.897374,4.09951641 C174.166904,3.9567346 173.429774,3.90112437 172.688366,3.94562144 C170.684843,4.06595468 168.901185,4.76452759 167.342507,6.04262929 L167.17683,6.18180889 C167.12873,6.21933668 167.100798,6.22932874 167.037532,6.23140112 L166.812143,6.23097504 C166.523121,6.23333103 166.234056,6.23186409 165.945034,6.23097504 C165.898062,6.23084168 165.851134,6.22475167 165.805221,6.22146218 C165.792827,6.13753563 165.853207,6.11081961 165.889153,6.07343496 C166.601099,5.3333433 167.40474,4.71349598 168.301178,4.21771592 C169.323625,3.65227861 170.410597,3.27736522 171.562669,3.08835268 C172.332437,2.96206279 173.106615,2.92698968 173.881102,2.98295552 Z M153.5,12.5434783 L153.5,13.5434783 L0.5,13.5434783 L0.5,12.5434783 L153.5,12.5434783 Z M344.5,12.5434783 L344.5,13.5434783 L191.5,13.5434783 L191.5,12.5434783 L344.5,12.5434783 Z" id="Shape"></path>
                        </g>
                    </g>
                </g>
            </g>
        </g>
    </g>
</svg>