<?xml version="1.0" encoding="UTF-8"?>
<svg width="345px" height="26px" viewBox="0 0 345 26" version="1.1" xmlns="http://www.w3.org/2000/svg" xmlns:xlink="http://www.w3.org/1999/xlink">
    <title>Group Copy</title>
    <g id="Web-Facebook" stroke="none" stroke-width="1" fill="none" fill-rule="evenodd">
        <g id="Login" transform="translate(-135.000000, -177.000000)">
            <g id="Group-Copy" transform="translate(136.000000, 177.000000)">
                <g id="Group-5" transform="translate(159.000000, 0.000000)" fill="#FFFFFF" opacity="0.574428013">
                    <g id="Group">
                        <path d="M1.24006483,12.9735608 C1.25088716,19.4625811 6.50904622,24.7143176 12.9856418,24.7143176 C19.5078584,24.7143176 24.7217603,19.412777 24.7315846,12.997848 C24.7413812,6.58977027 19.5473643,1.24303716 12.977987,1.24720702 C6.47376364,1.25133784 1.25678226,6.52318919 1.24006483,12.9735608 M12.9678246,4.97379915e-14 C20.2698652,0.0182702703 25.8959396,5.915 25.9745115,12.8242365 C26.0563389,20.0153446 20.2159735,25.9438277 13.0068026,25.9571135 C5.95935078,25.9701351 0.0105859783,20.2667365 1.37827935e-05,12.9892399 C-0.0102668136,5.89044932 5.73194977,0.0366722973 12.9678246,4.97379915e-14" id="Fill-1"></path>
                        <path d="M23.0000276,10.5581708 C22.9433524,10.5686172 22.910053,10.5787079 22.8764449,10.5800859 C22.806053,10.5829754 22.7354847,10.5813751 22.6649604,10.5813751 C16.6656397,10.5813751 10.6662308,10.5813306 4.66691001,10.5815973 C4.56895237,10.5815973 4.47108295,10.5850202 4.36814143,10.5869316 C4.34525083,10.6402303 4.32072834,10.6831271 4.30798194,10.7292689 C4.15595134,11.2780365 4.04670278,11.8351167 4.0070081,12.4041102 C3.98724898,12.6875401 3.96934227,12.9719036 3.97004795,13.255778 C3.97379689,14.792016 4.33642979,16.2387265 5.05710866,17.592131 C5.75679345,18.9060615 6.7177574,19.9867936 7.92835676,20.8423287 C7.99107434,20.8866479 8.05308624,20.9319451 8.12008203,20.9801318 C8.0680379,21.3122373 7.99094203,21.6284288 7.93356117,21.939197 C7.86683001,21.9813826 7.82956112,21.9392859 7.78982234,21.9144369 C7.35763555,21.6441206 6.94820704,21.3421095 6.56391849,21.0064033 C4.91623667,19.5668941 3.81775272,17.7848331 3.28906376,15.6494626 C3.16768627,15.1592836 3.09028166,14.6617254 3.04335373,14.1581661 C2.99232402,13.6112656 2.98738424,13.0636982 3.02319766,12.5175533 C3.08970829,11.5044337 3.30542679,10.5217641 3.66616317,9.57261177 C3.93198517,8.87310536 4.26828727,8.210139 4.67745115,7.58486846 C4.7237616,7.51414434 4.77333584,7.44555395 4.8239245,7.37238494 C4.88448093,7.36905099 4.93983295,7.36460573 4.99518496,7.36340551 C5.06566506,7.36189412 5.13623337,7.36296098 5.20671347,7.36296098 C10.1274858,7.36296098 15.048214,7.36304989 19.9689423,7.36229419 C20.0579466,7.36224974 20.1495089,7.3775859 20.2307507,7.34642461 C20.2552291,7.28605795 20.222062,7.25471886 20.1941875,7.22471334 C19.9677073,6.98097963 19.7511949,6.72657729 19.5111745,6.49720178 C18.2042494,5.24812763 16.6672716,4.44544669 14.8973743,4.09951641 C14.1669041,3.9567346 13.429774,3.90112437 12.6883657,3.94562144 C10.6848431,4.06595468 8.90118501,4.76452759 7.34250747,6.04262929 C7.06857011,6.26729283 7.18086194,6.22790781 6.81214252,6.23097504 C6.52312119,6.23333103 6.23405575,6.23186409 5.94503441,6.23097504 C5.89806238,6.23084168 5.85113446,6.22475167 5.80522095,6.22146218 C5.79282739,6.13753563 5.8532074,6.11081961 5.88915313,6.07343496 C6.60109917,5.3333433 7.4047399,4.71349598 8.30117796,4.21771592 C9.32362455,3.65227861 10.410597,3.27736522 11.5626688,3.08835268 C12.3324368,2.96206279 13.1066152,2.92698968 13.8811024,2.98295552 C17.8910143,3.27274215 21.1069886,5.8339687 22.5361292,9.20872263 C22.691203,9.57487886 22.830399,9.94699173 22.9400004,10.3298621 C22.9594067,10.3976524 22.9759462,10.4662428 23.0000276,10.5581708" id="Fill-4"></path>
                        <path d="M21.9504618,10.6265507 C21.996088,10.614679 22.0222952,10.6021063 22.0485453,10.6019193 C22.288878,10.6000031 22.5292107,10.5979465 22.7695005,10.6007976 C22.8796565,10.6021063 22.9004934,10.6259898 22.9141555,10.7426967 C23.0017562,11.4936964 23.0257723,12.2456308 22.9702217,13.0018651 C22.811432,15.1635363 22.1251906,17.10446 20.8939689,18.8049124 C19.3919969,20.8792754 17.4456629,22.1913748 15.0682853,22.7371909 C14.2507503,22.9249408 13.4233339,22.9899078 12.590762,22.9420005 C11.4082598,22.8739488 10.2695365,22.5890755 9.18120831,22.0756962 C9.1251851,22.0492887 9.07066558,22.0188617 9.02061417,21.9929217 C8.98345153,21.9107081 9.00549134,21.8370944 9.01807938,21.7650231 C9.33114773,19.9674007 9.64498941,18.1698718 9.9587022,16.3722961 C10.1648796,15.1910188 10.3717875,14.0099284 10.5761605,12.8282771 C10.5988877,12.696941 10.6480369,12.602622 10.7572478,12.5250355 C11.9125546,11.7037874 13.0640378,10.8760894 14.2168528,10.0506815 C14.261491,10.0187121 14.3091365,9.99165036 14.3634412,9.95715709 C14.4019357,10.0223578 14.3863402,10.0806411 14.3771033,10.1351386 C14.321123,10.4656289 14.2629517,10.7956986 14.2057255,11.1259552 C14.0468069,12.0432983 13.8878454,12.9606415 13.7290986,13.8780314 C13.569063,14.8027593 13.4091133,15.7275339 13.2493784,16.6523085 C13.1073871,17.4743512 12.9656535,18.2964873 12.823834,19.11853 C12.6782768,19.9626334 12.5327625,20.8067835 12.3871193,21.6508401 C12.3747031,21.7230049 12.3520619,21.7948425 12.3841979,21.8814496 C12.4217042,21.8877593 12.4607142,21.8964995 12.5001109,21.9007527 C12.8976008,21.9436589 13.2944891,21.935059 13.6929671,21.9055668 C14.1736754,21.8699985 14.6480683,21.7966653 15.1162746,21.6755182 C17.1090081,21.1598019 18.7536159,20.0338166 20.0505704,18.3119111 C20.9910213,17.0632831 21.5997152,15.6386366 21.8906578,14.0556857 C22.0190301,13.3575477 22.0781895,12.6505293 22.0589423,11.9381827 C22.0482876,11.5423515 22.019073,11.1473148 21.960472,10.7556434 C21.9551017,10.7198414 21.9547151,10.6831982 21.9504618,10.6265507" id="Fill-6"></path>
                    </g>
                </g>
                <line x1="0" y1="13" x2="152" y2="13" id="Line-2" stroke-opacity="0.44569493" stroke="#FFFFFF" stroke-linecap="square"></line>
                <line x1="191" y1="13" x2="343" y2="13" id="Line-2-Copy" stroke-opacity="0.44569493" stroke="#FFFFFF" stroke-linecap="square"></line>
            </g>
        </g>
    </g>
</svg>