<?xml version="1.0" encoding="UTF-8"?>
<svg width="512px" height="99px" viewBox="0 0 512 99" version="1.1" xmlns="http://www.w3.org/2000/svg" xmlns:xlink="http://www.w3.org/1999/xlink">
    <title>Group 2</title>
    <defs>
        <polygon id="path-1" points="0 0 99 0 99 99 0 99"></polygon>
    </defs>
    <g id="Web-Facebook" stroke="none" stroke-width="1" fill="none" fill-rule="evenodd">
        <g id="Login-Copy-2" transform="translate(-232.000000, -55.000000)">
            <g id="Group-2" transform="translate(232.000000, 55.000000)">
                <g id="Group-8">
                    <mask id="mask-2" fill="white">
                        <use xlink:href="#path-1"></use>
                    </mask>
                    <g id="Clip-2"></g>
                    <path d="M49.5023428,4.85015711 C24.8828702,4.85015711 4.85009635,24.8804827 4.85009635,49.4985776 C4.85009635,74.1176766 24.8828702,94.1500102 49.5023428,94.1500102 C74.1191379,94.1500102 94.1499037,74.1176766 94.1499037,49.4985776 C94.1499037,24.8804827 74.1191379,4.85015711 49.5023428,4.85015711 M49.5023428,99 C22.2062221,99 0,76.7951025 0,49.4985776 C0,22.2050648 22.2062221,0 49.5023428,0 C76.7966227,0 99,22.2050648 99,49.4985776 C99,76.7951025 76.7966227,99 49.5023428,99" id="Fill-1" fill="#A6A6A6" mask="url(#mask-2)"></path>
                    <path d="M83.7161602,43.5565338 C84.0204565,45.4003847 84.1933559,47.2891872 84.1933559,49.2177415 C84.1933559,68.5058009 68.4727812,84.200758 49.1527393,84.200758 C48.1919628,84.200758 47.2421081,84.1507746 46.3006547,84.0752963 L54.4116378,41 L39.3986234,50.8656843 L33,84.4721444 C33.0225156,84.4830468 33.0436869,84.4946202 33.0662025,84.5053549 C35.5133428,85.6212595 38.0937283,86.4917759 40.7792985,87.0831903 C43.4781428,87.6772883 46.277635,88 49.1527393,88 C70.5737866,88 88,70.6027558 88,49.2177415 C88,47.2930449 87.8494481,45.4052489 87.5760687,43.5565338 L83.7161602,43.5565338 Z" id="Fill-4" fill="#A6A6A6" mask="url(#mask-2)"></path>
                    <path d="M30.5612893,79.0364218 C21.072881,72.7792793 14.7852044,62.0101632 14.7852044,49.785929 C14.7852044,46.3417243 15.2918142,43.0159555 16.2199863,39.8698537 L87,39.8698537 C86.485537,37.9032466 85.8243711,36.093827 85.0236869,34.2612571 C83.9969331,31.9109913 82.7441096,29.6831876 81.2936214,27.6030094 C74.3033411,17.5753762 62.7221596,11 49.633513,11 C38.4565165,11 28.3898178,15.8038696 21.3306973,23.4475179 L26.7276295,23.4475179 C32.8577424,18.0667344 40.871769,14.8001836 49.633513,14.8001836 C60.4666429,14.8001836 70.1605691,19.7916047 76.5560172,27.6030094 L17.9702298,27.6030094 C16.6116399,29.5513311 15.4291603,31.6294962 14.4408367,33.8165352 C12.2374514,38.6905269 11,44.0944608 11,49.785929 C11,63.8756134 18.5374925,76.2077149 29.7609393,83 L30.5612893,79.0364218 Z" id="Fill-6" fill="#A6A6A6" mask="url(#mask-2)"></path>
                </g>
                <path d="M271.357233,40.4270633 C274.439983,40.4270633 276.997633,40.6901183 279.029691,41.2118523 C281.057816,41.735045 282.616891,42.5563018 283.698066,43.6722193 C284.778258,44.7881367 285.451841,46.2205954 285.715866,47.9710541 C285.980383,49.7229716 285.908599,51.8298431 285.504449,54.2872927 L283.883916,64.119522 C283.480749,66.5745404 282.856824,68.6838431 282.015091,70.4343018 C281.175324,72.1891367 280.029741,73.6206229 278.582274,74.7379991 C277.131366,75.8519716 275.306299,76.6596138 273.109041,77.1604394 C270.907849,77.6598064 268.265141,77.9111917 265.181899,77.9111917 L239.294666,77.9111917 L237.056108,91.4957239 C236.892383,92.4983477 236.301399,93.0001459 235.290533,93.0001459 L228.524216,93.0001459 C227.464674,93.0001459 227.018733,92.4983477 227.182458,91.4957239 L233.312066,54.2872927 C233.716708,51.8298431 234.341616,49.7229716 235.181383,47.9710541 C236.021149,46.2205954 237.165258,44.7881367 238.616166,43.6722193 C240.065599,42.5563018 241.880341,41.735045 244.060391,41.2118523 C246.239458,40.6901183 248.897408,40.4270633 252.025391,40.4270633 L271.357233,40.4270633 Z M211.683865,40 C214.724636,40 217.247054,40.2666753 219.250636,40.7955896 C221.250824,41.3264755 222.788423,42.158542 223.854705,43.2898171 C224.921472,44.4215852 225.584807,45.873265 225.847135,47.6483072 C226.106068,49.4238423 226.036243,51.5597094 225.636206,54.0509794 L224.037995,64.0190167 C223.640867,66.507822 223.025536,68.6456609 222.198307,70.4202101 C221.366714,72.1991957 220.238366,73.6508756 218.809868,74.7836295 C217.378946,75.9129329 215.579019,76.7316902 213.411543,77.2389156 C211.240672,77.745155 208.634367,78 205.594081,78 L186.325847,78 C183.238527,78 180.704471,77.745155 178.721255,77.2389156 C176.737553,76.7316902 175.212561,75.9129329 174.145795,74.7836295 C173.078543,73.6508756 172.413753,72.1991957 172.15482,70.4202101 C171.892492,68.6456609 171.964741,66.507822 172.362354,64.0190167 L173.960565,54.0509794 C174.360118,51.5597094 174.973024,49.4238423 175.804617,47.6483072 C176.631846,45.873265 177.760195,44.4215852 179.191117,43.2898171 C180.621069,42.158542 182.410328,41.3264755 184.560833,40.7955896 C186.709884,40.2666753 189.328796,40 192.416116,40 L211.683865,40 Z M344.966997,40 C347.959245,40 350.429007,40.2666753 352.3801,40.7955896 C354.327375,41.3259826 355.837575,42.158542 356.911177,43.2898171 C357.980962,44.4215852 358.633712,45.873265 358.869428,47.6483072 C359.102757,49.4238423 359.023549,51.5597094 358.630372,54.0509794 L355.094166,76.4768452 C354.935273,77.4932676 354.362208,78 353.381651,78 L346.813592,78 C345.83065,78 345.420295,77.4932676 345.580143,76.4768452 L348.746076,56.4022571 C348.970339,54.9752238 349.072451,53.7626151 349.050502,52.7688676 C349.02903,51.7805422 348.816695,50.9948113 348.414452,50.4180828 C348.016504,49.8413543 347.38952,49.4238423 346.534933,49.1724478 C345.681777,48.9176028 344.51847,48.7919056 343.046442,48.7919056 L331.253043,48.7919056 L326.887061,76.4768452 C326.726736,77.4932676 326.132676,78 325.105836,78 L318.540163,78 C317.55722,78 317.148297,77.4932676 317.30719,76.4768452 L321.673172,48.7919056 L310.281538,48.7919056 C308.852932,48.7919056 307.650498,48.9176028 306.67185,49.1724478 C305.694633,49.4238423 304.879173,49.8413543 304.229763,50.4180828 C303.58083,50.9948113 303.067887,51.7805422 302.68807,52.7688676 C302.306822,53.7626151 302.004782,54.9752238 301.780519,56.4022571 L298.614586,76.4768452 C298.455692,77.4932676 297.88215,78 296.900162,78 L290.333535,78 C289.305263,78 288.872482,77.4932676 289.032329,76.4768452 L292.568059,54.0509794 C292.961236,51.5597094 293.567702,49.4238423 294.382685,47.6483072 C295.196714,45.873265 296.308488,44.4215852 297.716577,43.2898171 C299.123234,42.158542 300.882987,41.3259826 303.000131,40.7955896 C305.114888,40.2666753 307.692965,40 310.730543,40 L344.966997,40 Z M399.63619,40 C402.687196,40 405.216158,40.2666753 407.226484,40.7960825 C409.23681,41.3264755 410.776178,42.158542 411.846049,43.2898171 C412.91592,44.4215852 413.583921,45.8737579 413.844699,47.6483072 C414.106936,49.4243352 414.036876,51.5602024 413.635979,54.0509794 L410.675954,72.4604488 C410.498859,73.5690492 410.270191,74.4804774 409.996277,75.1952264 C409.721876,75.9129329 409.358928,76.4768452 408.90354,76.8918926 C408.449611,77.3089117 407.892052,77.5948113 407.22989,77.7569853 C406.564322,77.9196524 405.72993,78 404.731092,78 L372.210228,78 C370.20574,78 368.566634,77.8033208 367.283665,77.4099624 C366.00556,77.0180828 365.017913,76.4344532 364.325099,75.6457647 C363.629367,74.8629913 363.214847,73.8475548 363.072295,72.5989623 C362.929742,71.3562849 362.998829,69.8774938 363.272257,68.170969 L363.806949,64.8500973 C364.036103,63.4181346 364.411214,62.1379946 364.935203,61.0062265 C365.459678,59.8788948 366.192873,58.9216241 367.13868,58.1354002 C368.084973,57.3506551 369.26188,56.7616033 370.66648,56.3707096 C372.074487,55.9788299 373.779274,55.7831366 375.784249,55.7831366 L403.588242,55.7831366 L403.798908,54.4655338 C403.976976,53.3589052 404.015898,52.4124789 403.915674,51.6282267 C403.81253,50.8449604 403.528399,50.2095732 403.059388,49.7255156 C402.590863,49.2404722 401.896591,48.8840835 400.978029,48.6538851 C400.057522,48.4236866 398.845586,48.3048904 397.343193,48.3048904 L368.78849,48.3048904 C367.967234,48.3048904 367.626179,47.8928006 367.759487,47.0617201 L368.694104,41.2466208 C368.828385,40.4150473 369.304694,40 370.124977,40 L399.63619,40 Z M402.597188,61.9418083 L377.594612,61.9418083 C376.184173,61.9418083 375.144467,62.2326372 374.485224,62.807394 C373.822089,63.3846154 373.400757,64.2275263 373.224148,65.3326761 L372.989643,66.7873135 C372.78968,68.0324556 372.927854,68.9438838 373.404649,69.5211052 C373.880472,70.0983266 374.825306,70.3866909 376.235745,70.3866909 L399.257187,70.3866909 C399.986976,70.3866909 400.528479,70.2112077 400.880238,69.8676352 C401.231023,69.5211052 401.476719,68.9078999 401.618298,68.0324556 L402.597188,61.9418083 Z M209.423774,48.1668699 L192.061174,48.1668699 C190.606007,48.1668699 189.386014,48.2851732 188.397315,48.5138929 C187.406676,48.746063 186.580417,49.1606175 185.917082,49.7614995 C185.252777,50.3604099 184.729091,51.1456479 184.34651,52.114749 C183.964898,53.0818783 183.65893,54.2816708 183.43006,55.7116617 L182.375901,62.2883383 C182.138788,63.7636788 182.057325,64.9886107 182.128605,65.9577118 C182.200854,66.9243482 182.474819,67.6977559 182.949046,68.2749773 C183.424242,68.8517058 184.11861,69.2662602 185.031665,69.5211052 C185.943266,69.7749643 187.124468,69.9011545 188.578665,69.9011545 L205.941265,69.9011545 C207.438618,69.9011545 208.684796,69.7749643 209.679313,69.5211052 C210.671407,69.2662602 211.498636,68.8517058 212.157122,68.2749773 C212.818032,67.6977559 213.338324,66.9243482 213.72236,65.9577118 C214.103486,64.9886107 214.412849,63.7636788 214.649962,62.2883383 L215.704122,55.7116617 C215.932992,54.2816708 216.011059,53.0818783 215.93881,52.114749 C215.866561,51.1456479 215.596475,50.3604099 215.124188,49.7614995 C214.653356,49.1606175 213.958988,48.746063 213.044963,48.5138929 C212.127058,48.2851732 210.921127,48.1668699 209.423774,48.1668699 Z M269.039516,48.6187239 L251.642383,48.6187239 C250.169349,48.6187239 248.930841,48.7480633 247.922924,48.9941 C246.914516,49.2474303 246.075733,49.6563569 245.407066,50.2257422 C244.737908,50.7951275 244.209366,51.5667881 243.817999,52.5465587 C243.425158,53.5243844 243.113933,54.720045 242.881374,56.1311092 L240.644291,69.7166138 L265.565399,69.7166138 C267.083666,69.7166138 268.345283,69.6042927 269.349758,69.3772193 C270.353741,69.1477147 271.192033,68.7412193 271.865616,68.1480083 C272.538708,67.5557697 273.067249,66.7802193 273.457141,65.8267055 C273.844083,64.8697881 274.155308,63.664889 274.395733,62.2090908 L275.397258,56.1311092 C275.629324,54.720045 275.711924,53.5243844 275.643583,52.5465587 C275.573766,51.5667881 275.299416,50.7951275 274.817583,50.2257422 C274.335258,49.6563569 273.631683,49.2474303 272.705874,48.9941 C271.780066,48.7480633 270.557783,48.6187239 269.039516,48.6187239 Z M497.441254,40.4268202 C500.520763,40.4268202 503.075317,40.6898752 505.103442,41.2116092 C507.131567,41.7352881 508.685317,42.5560587 509.765183,43.6719761 C510.847504,44.7883798 511.520272,46.2203523 511.782504,47.9712972 C512.047192,49.7227284 511.976478,51.8296 511.572326,54.2870495 L505.450138,91.4954807 C505.286612,92.4981046 504.696344,92.9999028 503.686701,92.9999028 L496.927103,92.9999028 C495.915987,92.9999028 495.494647,92.4981046 495.659156,91.4954807 L497.894022,77.9109486 L471.966924,77.9109486 C468.840272,77.9109486 466.27246,77.6595633 464.26496,77.1601963 C462.255987,76.6598569 460.710585,75.8522147 459.631701,74.7382422 C458.549379,73.6208661 457.876121,72.1888936 457.614871,70.4340587 C457.349201,68.6836 457.421388,66.5747835 457.825049,64.1197651 L459.442638,54.2870495 C459.847281,51.8296 460.469469,49.7227284 461.310674,47.9712972 C462.149424,46.2203523 463.292147,44.7883798 464.740808,43.6719761 C466.188978,42.5560587 468.000049,41.7352881 470.178933,41.2116092 C472.355362,40.6898752 475.006656,40.4268202 478.134781,40.4268202 L497.441254,40.4268202 Z M456.975391,40 C457.771067,40 458.103187,40.4150473 457.972223,41.2461279 L457.067725,47.0612271 C456.937704,47.8928006 456.476504,48.3048904 455.682242,48.3048904 L438.086462,48.3048904 C436.675068,48.3048904 435.487915,48.4355169 434.522646,48.6849397 C433.556435,48.9422493 432.751809,49.3563108 432.112065,49.9335322 C431.470908,50.5107537 430.964484,51.2930341 430.589494,52.2867817 C430.213091,53.2780646 429.91536,54.4901803 429.692534,55.9201712 L426.492401,76.4768452 C426.334585,77.4932676 425.769274,78 424.799766,78 L418.316118,78 C417.301385,78 416.874104,77.4932676 417.03192,76.4768452 L420.522245,54.0509794 C420.910425,51.5597094 421.509655,49.4238423 422.314281,47.6483072 C423.118907,45.873265 424.21514,44.4215852 425.605334,43.2898171 C426.994115,42.158542 428.731976,41.3259826 430.821743,40.7955896 C432.910096,40.2666753 435.45541,40 438.453914,40 L456.975391,40 Z M158,40 L151.428031,74.5243799 C151.241429,75.5074934 150.650841,76 149.65675,76 L149.65675,76 L142.259498,76 C141.263002,76 140.859979,75.5074934 141.042734,74.5243799 L141.042734,74.5243799 L146.149295,47.7072296 L146.150257,47.7072296 L158,40 Z M495.127817,48.618967 L477.751254,48.618967 C476.27804,48.618967 475.040049,48.7478202 474.03679,48.9938569 C473.029603,49.2476734 472.190853,49.6566 471.523978,50.2254991 C470.855138,50.7948844 470.324781,51.566545 469.933888,52.5468018 C469.543978,53.5246275 469.231165,54.7202881 468.998888,56.1308661 L467.999067,62.2088477 C467.758933,63.6646459 467.676433,64.8700312 467.749603,65.8264624 C467.822772,66.7799761 468.097281,67.5555266 468.575585,68.1482514 C469.052415,68.7414624 469.754156,69.1479578 470.683754,69.3769761 C471.609915,69.6040495 472.809112,69.7163706 474.281344,69.7163706 L499.242013,69.7163706 L501.476388,56.1308661 C501.708665,54.7202881 501.790183,53.5246275 501.721433,52.5468018 C501.654156,51.566545 501.376701,50.7948844 500.896433,50.2254991 C500.415183,49.6566 499.714424,49.2476734 498.789246,48.9938569 C497.864558,48.7478202 496.644246,48.618967 495.127817,48.618967 Z M183.001903,29.0819048 L183.001903,38.689 L125,38.689 L125,29.0819048 L183.001903,29.0819048 Z" id="Combined-Shape" fill="#A6A6A6"></path>
            </g>
        </g>
    </g>
</svg>