<?xml version="1.0" encoding="UTF-8"?>
<svg width="20px" height="21px" viewBox="0 0 20 21" version="1.1" xmlns="http://www.w3.org/2000/svg" xmlns:xlink="http://www.w3.org/1999/xlink">
    <title>bg</title>
    <defs>
        <linearGradient x1="50%" y1="0.914779974%" x2="50%" y2="100%" id="linearGradient-1">
            <stop stop-color="#62B3FF" offset="0%"></stop>
            <stop stop-color="#0005FF" offset="100%"></stop>
        </linearGradient>
    </defs>
    <g id="Web-Facebook" stroke="none" stroke-width="1" fill="none" fill-rule="evenodd">
        <g id="01-Topmarq_Home-Copy" transform="translate(-437.000000, -859.000000)" fill="url(#linearGradient-1)">
            <g id="news" transform="translate(411.000000, 445.000000)">
                <g id="Like" transform="translate(26.000000, 414.024768)">
                    <path d="M9.83865402,0 C15.2723926,0 19.677308,4.39610153 19.677308,9.81896759 C19.677308,15.2418336 15.2723926,19.6379352 9.83865402,19.6379352 C4.40491545,19.6379352 0,15.2418336 0,9.81896759 C0,4.39610153 4.40491545,0 9.83865402,0 Z M13.8306594,6.97421986 C14.1062333,7.36456786 14.269,7.84316737 14.269,8.36160942 L14.269,8.36160942 L14.269,10.7348083 L14.2636051,10.8972563 C14.1813227,12.1324352 13.1679362,13.1209754 11.9200638,13.1209754 L11.9200638,13.1209754 L10.1455957,13.1209754 L10.0789291,13.1291406 C10.033539,13.1397074 9.98814894,13.1598803 9.95410638,13.1858169 L9.95410638,13.1858169 L9,14.0232322 L9.13282979,14.0561339 L9.13282979,15.3918688 C9.13282979,15.6252982 9.26048936,15.832791 9.46474468,15.9235691 C9.54134043,15.962474 9.63070213,15.9754423 9.70729787,15.9754423 C9.8477234,15.9754423 9.97538298,15.9365374 10.0775106,15.832791 L10.0775106,15.832791 L11.9541064,14.1858169 C12.0051702,14.146912 12.081766,14.1209754 12.1455957,14.1209754 L12.1455957,14.1209754 L13.9200638,14.1209754 C15.2221915,14.1209754 16.269,13.0446065 16.269,11.7348083 L16.269,11.7348083 L16.269,9.36160942 C16.269,8.03884284 15.2094255,6.97544227 13.9200638,6.97544227 L13.9200638,6.97544227 Z M10.6510638,4.9752322 L6.34893617,4.9752322 C5.04680851,4.9752322 4,6.05160107 4,7.36139935 L4,7.36139935 L4,9.72162989 C4,10.849872 4.79148936,11.8354627 5.86382979,12.0559238 L5.86382979,12.0559238 L5.86382979,13.3916587 C5.86382979,13.6250881 5.99148936,13.8325809 6.19574468,13.923359 C6.27234043,13.9622639 6.36170213,13.9752322 6.43829787,13.9752322 C6.5787234,13.9752322 6.70638298,13.9363273 6.80851064,13.8325809 L6.80851064,13.8325809 L8.68510638,12.1856068 C8.73617021,12.1467019 8.81276596,12.1207653 8.87659574,12.1207653 L8.87659574,12.1207653 L10.6510638,12.1207653 C11.9531915,12.1207653 13,11.0443965 13,9.73459819 L13,9.73459819 L13,7.36139935 C13,6.03863277 11.9404255,4.9752322 10.6510638,4.9752322 L10.6510638,4.9752322 Z" id="Combined-Shape"></path>
                </g>
            </g>
        </g>
    </g>
</svg>