<?xml version="1.0" encoding="UTF-8"?>
<svg width="27px" height="19px" viewBox="0 0 27 19" version="1.1" xmlns="http://www.w3.org/2000/svg" xmlns:xlink="http://www.w3.org/1999/xlink">
    <title>Combined Shape</title>
    <g id="Web-Facebook" stroke="none" stroke-width="1" fill="none" fill-rule="evenodd">
        <g id="Events" transform="translate(-538.000000, -1044.000000)" fill="#606670" fill-rule="nonzero">
            <g id="news-copy" transform="translate(411.000000, 629.000000)">
                <path d="M147.499744,415 C148.878412,415 150,416.121439 150,417.499974 C150,418.819965 148.971655,419.904279 147.673939,419.993998 C148.149222,419.994099 148.653589,419.994699 148.984885,419.99509 L149.358139,419.995522 C149.655159,419.995522 149.787644,420.103051 149.951419,420.255502 L149.951419,420.255502 L151.587458,421.778544 C151.848956,422.021934 152.205704,422.422909 152.417223,422.711222 L152.417223,422.711222 L153.207995,423.789173 C153.39732,423.794482 153.963416,424.140556 153.999111,424.689655 C154.022222,425.04517 153.587939,425.667206 153.479129,425.724138 C152.629638,426.168612 151.846064,425.324836 151.840206,425.170696 C151.760601,425.112368 151.689271,425.041918 151.629733,424.96082 L151.629733,424.96082 L150.832019,423.873361 C150.752319,423.764739 150.62868,423.617659 150.50523,423.481703 L150.50523,423.481703 L150.747611,424.905439 L151.528539,428.58676 C151.577139,428.817505 151.69726,429.211683 151.785615,429.430353 L151.785615,429.430353 L152.908786,432.209515 C153.122826,432.739126 152.86594,433.344131 152.336097,433.558095 C152.211839,433.608294 152.081304,433.633774 151.948248,433.633774 C151.523546,433.633774 151.146254,433.379308 150.987092,432.985606 L150.987092,432.985606 L149.86392,430.206397 C149.730247,429.875633 149.573985,429.362898 149.500467,429.013786 L149.500467,429.013786 L148.989074,426.586066 L148.59162,426.586066 L148.398694,428.750193 C148.376439,428.99962 148.364598,429.437864 148.373348,429.688052 L148.373348,429.688052 L148.483483,432.841616 C148.503408,433.412489 148.055023,433.893137 147.483951,433.913102 L147.483951,433.913102 L147.447239,433.913768 C146.88639,433.913768 146.431729,433.47462 146.412137,432.913967 L146.412137,432.913967 L146.302002,429.760403 C146.290304,429.425029 146.304475,428.900505 146.334291,428.566319 L146.334291,428.566319 L146.610055,425.472604 C146.612148,425.449264 146.615905,425.426541 146.619471,425.403771 L146.619471,425.403771 L146,423 C145.164351,423.888792 144.68206,424.417487 144.553126,424.586085 C144.708246,424.703644 144.833598,424.8647 144.895513,425.045246 L144.895513,425.045246 L145.099471,425.64293 C145.16481,425.832936 145.146882,426.019661 145.050158,426.155142 C144.958284,426.283873 144.807443,426.35475 144.625503,426.35475 L144.625503,426.35475 L144.024233,426.35475 C144.08515,426.528689 144.124857,426.639878 144.13432,426.666356 C144.204937,426.803548 144.240222,427.269412 144.240222,427.36672 L144.240222,427.36672 L144.239652,427.376703 L143.794596,431.167169 C143.780711,431.284015 143.676283,431.504777 143.380498,431.504777 L143.380498,431.504777 L143.275832,431.504777 L143.275832,432.547979 C143.275832,433.484318 142.591011,434 141.347481,434 C140.10395,434 139.419129,433.484318 139.419129,432.547979 L139.419129,432.547979 L139.419129,431.504777 L132.719139,431.504777 L132.719139,432.547979 C132.719139,433.484318 132.034318,434 130.790788,434 C129.547257,434 128.862436,433.484318 128.862436,432.547979 L128.862436,432.547979 L128.862436,431.504777 L128.75777,431.504777 C128.485858,431.504777 128.362313,431.23239 128.33497,431.088352 L128.33497,431.088352 L128.334019,431.082363 L127.898331,427.367576 C127.898331,427.270267 127.933616,426.804832 128.004186,426.666831 L128.004186,426.666831 L128.112133,426.354798 L127.513051,426.354798 C127.330968,426.354798 127.180127,426.284205 127.088301,426.155998 C126.991577,426.020897 126.973363,425.833981 127.038369,425.643025 L127.038369,425.643025 L127.244182,425.045198 C127.370532,424.676691 127.759522,424.38795 128.129775,424.38795 L128.129775,424.38795 L128.796526,424.38795 C129.596618,422.108071 130.069778,420.823571 130.202738,420.570008 C130.572088,419.866126 131.502382,419.554473 132.117965,419.348209 C132.152346,419.335089 133.069325,419 136.068825,419 C139.000989,419 139.943314,419.32002 140.019733,419.347877 C140.684201,419.533842 141.600799,419.860089 141.907188,420.543672 C142.06364,420.892737 142.522771,422.147194 142.9771,423.411681 C143.097506,423.256187 143.935612,422.128826 144,422 L144,422 L145.491068,420.535448 C145.644905,420.227788 145.878631,419.991957 146.352409,419.991957 C146.352409,419.991957 146.785444,419.992474 147.32279,419.993115 C146.027058,419.903119 145,418.819259 145,417.499974 C145,416.121439 146.121383,415 147.499744,415 Z M142.4843,427.111303 C142.085325,427.111303 141.216755,427.49721 140.845884,427.661973 C140.774601,427.693775 140.702129,427.725055 140.62999,427.756097 C140.161966,427.957606 139.719906,428.147945 139.719906,428.452943 C139.719906,428.759415 139.85591,428.925509 140.573258,428.925509 L140.573258,428.925509 L141.535841,428.925509 C142.598429,428.925509 143.147818,428.739544 143.169645,428.372653 L143.169645,428.372653 L143.169407,427.687168 C143.169407,427.150046 142.910572,427.111303 142.4843,427.111303 Z M129.653492,427.112112 C129.227173,427.112112 128.968338,427.150854 128.968338,427.687976 L128.968338,427.687976 L128.968338,428.349597 C128.968338,428.731701 129.518297,428.925509 130.602855,428.925462 L130.602855,428.925462 L131.56444,428.925462 C132.28193,428.925462 132.417934,428.759367 132.417934,428.452895 C132.417934,428.149086 131.974828,427.958224 131.505711,427.756144 L131.505711,427.756144 L131.291766,427.662876 C130.7643,427.426427 130.02075,427.112112 129.653492,427.112112 Z M136.069824,420.500651 C131.7285,420.500651 131.493252,421.130756 131.415977,421.337875 C131.412268,421.347858 131.408749,421.357222 131.40523,421.365922 C131.387254,421.414837 131.357866,421.486951 131.320631,421.57827 C131.123236,422.062625 130.715891,423.061903 130.327186,424.65682 C130.718886,424.772763 132.645574,425.285213 136.068873,425.285213 C139.492457,425.285213 141.405544,424.772811 141.796055,424.656297 C141.454429,423.293741 141.046133,422.229671 140.824818,421.652951 C140.75886,421.481104 140.706551,421.344673 140.674262,421.249028 C140.673074,421.246223 140.672122,421.243751 140.671409,421.241755 C140.643115,421.165885 140.27367,420.500651 136.069824,420.500651 Z" id="Combined-Shape"></path>
            </g>
        </g>
    </g>
</svg>