<?xml version="1.0" encoding="UTF-8"?>
<svg width="28px" height="28px" viewBox="0 0 28 28" version="1.1" xmlns="http://www.w3.org/2000/svg" xmlns:xlink="http://www.w3.org/1999/xlink">
    <title>Combined Shape</title>
    <g id="Web-Facebook" stroke="none" stroke-width="1" fill="none" fill-rule="evenodd">
        <g id="Class-Detail" transform="translate(-801.000000, -16.000000)" fill="#9CA3AE" fill-rule="nonzero">
            <g id="navigation" transform="translate(445.000000, 16.000000)">
                <path d="M370,0.35 C377.538687,0.35 383.65,6.46131317 383.65,14 C383.65,21.5386868 377.538687,27.65 370,27.65 C362.461313,27.65 356.35,21.5386868 356.35,14 C356.35,6.46131317 362.461313,0.35 370,0.35 Z M370,1.65 C363.179283,1.65 357.65,7.17928334 357.65,14 C357.65,20.8207167 363.179283,26.35 370,26.35 C376.820717,26.35 382.35,20.8207167 382.35,14 C382.35,7.17928334 376.820717,1.65 370,1.65 Z M371.033639,14.2222222 C373.772872,14.2222222 375.987571,16.7066667 375.987571,19.4222222 C375.987571,19.8074074 375.585652,20 374.781815,20 L374.781815,20 L365.69684,20 C365.247325,20 364.986404,19.8074074 364.914077,19.4222222 C364.914077,16.7066667 367.128776,14.2222222 369.868009,14.2222222 L369.868009,14.2222222 Z M375.641858,15.5936573 C376.224674,15.3047684 379,16.6358286 379,18.0308882 C379,18.9609279 378.44031,19.529177 377.320929,19.7356354 L377.320929,19.7356354 L377.153202,19.4222222 C377.153202,18.2088889 376.282955,16.5469907 375.641858,15.5936573 Z M365.358142,15.5936573 C364.717045,16.5469907 363.846798,18.2088889 363.846798,19.4222222 L363.679071,19.7356354 C362.55969,19.529177 362,18.9609279 362,18.0308882 C362,16.6358286 364.775326,15.3047684 365.358142,15.5936573 Z M376.278978,9.88888889 C377.561172,9.88888889 378.61024,10.9288889 378.61024,12.2 C378.61024,13.4711111 377.561172,14.5111111 376.278978,14.5111111 C374.996784,14.5111111 373.947717,13.4711111 373.947717,12.2 C373.947717,10.9288889 374.996784,9.88888889 376.278978,9.88888889 Z M364.331262,9.88888889 C365.613456,9.88888889 366.662524,10.9288889 366.662524,12.2 C366.662524,13.4711111 365.613456,14.5111111 364.331262,14.5111111 C363.049068,14.5111111 362,13.4711111 362,12.2 C362,10.9288889 363.049068,9.88888889 364.331262,9.88888889 Z M370.450824,7 C372.228411,7 373.656309,8.41555556 373.656309,10.1777778 C373.656309,11.94 372.228411,13.3555556 370.450824,13.3555556 C368.673237,13.3555556 367.245339,11.94 367.245339,10.1777778 C367.245339,8.41555556 368.673237,7 370.450824,7 Z" id="Combined-Shape"></path>
            </g>
        </g>
    </g>
</svg>