<?xml version="1.0" encoding="UTF-8"?>
<svg width="26px" height="27px" viewBox="0 0 26 27" version="1.1" xmlns="http://www.w3.org/2000/svg" xmlns:xlink="http://www.w3.org/1999/xlink">
    <title>Group 9</title>
    <g id="Web-Facebook" stroke="none" stroke-width="1" fill="none" fill-rule="evenodd">
        <g id="01-Topmarq_Home-Copy" transform="translate(-713.000000, -16.000000)" fill="#9CA3AE" fill-rule="nonzero">
            <g id="navigation" transform="translate(416.000000, 16.000000)">
                <g id="Group-9" transform="translate(297.000000, 0.000000)">
                    <path d="M12.8,7.99360578e-14 C19.8474293,7.99360578e-14 25.6,5.32641757 25.6,11.9480417 C25.6,18.5703126 19.8477703,23.8960833 12.8,23.8960833 C11.8665445,23.8960833 10.9443017,23.8021453 10.0456741,23.6182497 L10.0456741,23.6182497 L9.679,23.536 L4.28566667,26.4961544 L4.285,20.869 L3.99346272,20.6191894 C1.56221903,18.4693834 0.102990774,15.499401 0.00524523884,12.2925164 L0.00524523884,12.2925164 L-7.28306304e-13,11.9480417 C-7.28306304e-13,5.32641757 5.75257071,7.99360578e-14 12.8,7.99360578e-14 Z M12.8,1.3 C6.449125,1.3 1.3,6.06770833 1.3,11.9480417 C1.3,15.2993333 2.97229167,18.288375 5.58566667,20.2395417 L5.58566667,20.2395417 L5.58566667,24.3 L9.50141667,22.1514167 L9.8960516,22.2533425 C10.8235573,22.4764863 11.7971042,22.5960833 12.8,22.5960833 C19.150875,22.5960833 24.3,17.8293333 24.3,11.9480417 C24.3,6.06770833 19.150875,1.3 12.8,1.3 Z M20.3,9.3 L13.9843626,16.3 L11.0417512,13.0236823 L5.3,16.3 L11.6156374,9.3 L14.6295031,12.5763177 L20.3,9.3 Z" id="Combined-Shape"></path>
                </g>
            </g>
        </g>
    </g>
</svg>