<?xml version="1.0" encoding="UTF-8"?>
<svg width="27px" height="25px" viewBox="0 0 27 25" version="1.1" xmlns="http://www.w3.org/2000/svg" xmlns:xlink="http://www.w3.org/1999/xlink">
    <title>home</title>
    <g id="Web-Facebook" stroke="none" stroke-width="1" fill="none" fill-rule="evenodd">
        <g id="Events" transform="translate(-445.000000, -17.000000)" fill="#9CA3AE" fill-rule="nonzero">
            <g id="navigation" transform="translate(445.000000, 16.000000)">
                <g id="home" transform="translate(0.000000, 1.000000)">
                    <path d="M14.2977509,0.135305113 C14.0965968,-0.0451458281 12.7681443,-0.0449869789 12.5670432,0.135305113 L0.176043688,10.9142141 C0.012695345,11.0606716 -0.0434308279,12.1433939 0.0349869666,12.3483074 C0.113404761,12.5532738 0.310111112,12.6885591 0.529479729,12.6885591 L3.35622677,12.6885591 L3.35622677,22.3713279 C3.35622677,23.4758974 4.25165727,24.3713279 5.35622677,24.3713279 L10.3551606,24.3713279 L10.3551606,24.3713279 C10.6475461,24.3713279 10.8846528,24.1342742 10.8846528,23.8418357 L10.8846528,15.7496064 L16.1152944,15.7496064 L16.1152944,23.8418357 C16.1152944,24.1342742 16.352348,24.3713279 16.6447866,24.3713279 L21.6436674,24.3713279 C22.7482369,24.3713279 23.6436674,23.4758974 23.6436674,22.3713279 L23.6436674,12.6885591 L23.6436674,12.6885591 L26.4704674,12.6885591 C26.6898889,12.6885591 26.8865953,12.5532738 26.9650131,12.3483074 C27.0434308,12.1433939 26.9873047,11.0606716 26.8239564,10.9142141 L14.2977509,0.135305113 Z" id="Path"></path>
                </g>
            </g>
        </g>
    </g>
</svg>