<?xml version="1.0" encoding="UTF-8"?>
<svg width="24px" height="26px" viewBox="0 0 24 26" version="1.1" xmlns="http://www.w3.org/2000/svg" xmlns:xlink="http://www.w3.org/1999/xlink">
    <title>Shape</title>
    <g id="Web-Facebook" stroke="none" stroke-width="1" fill="none" fill-rule="evenodd">
        <g id="Events" transform="translate(-536.000000, -17.000000)" fill="#9CA3AE" fill-rule="nonzero">
            <g id="navigation" transform="translate(445.000000, 16.000000)">
                <path d="M113.54594,16.0104116 L110.762297,13.2557654 C110.066387,12.5598548 109.57345,11.631974 109.370476,10.5301155 C108.935532,8.26840599 107.659696,6.3546518 105.716945,5.10781195 C104.760068,4.49889016 103.716202,4.09294231 102.64334,3.88996838 C102.64334,3.71599072 102.614344,3.57100935 102.585347,3.39703169 C102.295385,1.80223654 100.729586,0.758370616 99.1347906,1.04833337 C97.5399955,1.33829613 96.4961295,2.90409501 96.7860923,4.49889016 C96.8150886,4.67286782 96.8730811,4.81784919 96.9310737,4.99182685 C94.756353,6.32565552 93.2485467,8.64535757 92.9875802,11.2840186 C92.9005914,12.0959144 92.9295876,12.8788138 93.1035653,13.6617132 C93.3065392,14.6765829 93.2195504,15.63346 92.8136025,16.5033482 L91.2478037,20.0408939 C90.8128595,21.0267672 90.9578409,22.1866183 91.6247552,23.0275102 C92.1756845,23.7524171 93.0165765,24.158365 93.915461,24.158365 C94.0894387,24.158365 94.2634163,24.1293687 94.437394,24.1003724 L95.8582115,23.839406 C96.3801444,25.7241639 98.0909247,27 100.004679,27 C100.265645,27 100.526612,26.9710037 100.816575,26.9130112 C101.947429,26.7100372 102.933303,26.0431229 103.571221,25.1152421 C104.151146,24.2743501 104.383116,23.317473 104.296128,22.3315996 L112.009137,20.9687747 C113.081999,20.7658008 113.951887,20.0118976 114.270846,18.9680317 C114.589805,17.9241657 114.328839,16.793311 113.54594,16.0104116 Z M98.2359061,4.23792368 C98.1489172,3.83197583 98.2359061,3.45502424 98.4678763,3.10706894 C98.6998465,2.78810991 99.0188055,2.5561397 99.4247534,2.46915087 C99.8307012,2.38216205 100.207653,2.46915087 100.555608,2.70112108 C100.874567,2.93309128 101.106537,3.25205031 101.193526,3.65799817 C101.193526,3.68699445 101.193526,3.71599072 101.193526,3.744987 C100.555608,3.744987 99.9176901,3.83197583 99.279772,3.9769572 C98.9318167,4.06394603 98.6128577,4.17993113 98.2938986,4.29591623 C98.2649023,4.29591623 98.2359061,4.26691996 98.2359061,4.23792368 Z M102.353377,24.3033464 C101.918433,24.9412644 101.280515,25.3472123 100.526612,25.4921937 C99.1057943,25.7531602 97.7139731,24.9122682 97.279029,23.5784395 L102.846314,22.5925661 C102.87531,23.2014879 102.701333,23.7814134 102.353377,24.3033464 Z M112.879025,18.5330875 C112.705048,19.0550205 112.2991,19.4319721 111.74817,19.5479572 L94.1764275,22.6795549 C93.6254983,22.7665438 93.1035653,22.5635698 92.75561,22.1286257 C92.4076547,21.6936816 92.3496621,21.1427523 92.5816323,20.6208194 L94.1474312,17.0832738 C94.6403679,15.952419 94.7853493,14.6765829 94.5243828,13.3717505 C94.4083977,12.7338324 94.3794014,12.0669181 94.437394,11.429 C94.7273567,8.52937247 96.8150886,6.09368532 99.598731,5.42677098 C100.14966,5.2817896 100.700589,5.22379705 101.251519,5.22379705 C102.556351,5.22379705 103.832187,5.60074863 104.934046,6.32565552 C106.528841,7.34052517 107.601703,8.93532032 107.949658,10.8200782 C108.210625,12.1829032 108.819547,13.4007468 109.747427,14.2996313 L112.53107,17.0542775 C112.908022,17.4312291 113.053003,17.9821583 112.879025,18.5330875 Z" id="Shape"></path>
            </g>
        </g>
    </g>
</svg>