<?xml version="1.0" encoding="UTF-8"?>
<svg width="28px" height="26px" viewBox="0 0 28 26" version="1.1" xmlns="http://www.w3.org/2000/svg" xmlns:xlink="http://www.w3.org/1999/xlink">
    <title>Group</title>
    <g id="Web-Facebook" stroke="none" stroke-width="1" fill="none" fill-rule="evenodd">
        <g id="01-Topmarq_Home-Copy" transform="translate(-622.000000, -17.000000)" fill="#9CA3AE" fill-rule="nonzero">
            <g id="navigation" transform="translate(416.000000, 16.000000)">
                <g id="Group" transform="translate(206.000000, 1.000000)">
                    <path d="M7,0 C7.55228475,0 8,0.44771525 8,1 L8,2 L20,2 L20,2 L20,1 C20,0.44771525 20.4477153,0 21,0 L22,0 C22.5522847,0 23,0.44771525 23,1 L23,2 L26,2 C27.1045695,2 28,2.8954305 28,4 L28,24 C28,25.1045695 27.1045695,26 26,26 L2,26 C0.8954305,26 0,25.1045695 0,24 L0,4 C0,2.8954305 0.8954305,2 2,2 L5,2 L5,2 L5,1 C5,0.44771525 5.44771525,0 6,0 L7,0 Z M26.7,7.65 L1.3,7.65 L1.3,24 C1.3,24.3543827 1.56334362,24.6472582 1.90501415,24.6936098 L2,24.7 L26,24.7 C26.3543827,24.7 26.6472582,24.4366564 26.6936098,24.0949859 L26.7,24 L26.7,7.65 Z M7,17 C7.55228475,17 8,17.4477153 8,18 L8,20 C8,20.5522847 7.55228475,21 7,21 L5,21 C4.44771525,21 4,20.5522847 4,20 L4,18 C4,17.4477153 4.44771525,17 5,17 L7,17 Z M15,17 C15.5522847,17 16,17.4477153 16,18 L16,20 C16,20.5522847 15.5522847,21 15,21 L13,21 C12.4477153,21 12,20.5522847 12,20 L12,18 C12,17.4477153 12.4477153,17 13,17 L15,17 Z M23,17 C23.5522847,17 24,17.4477153 24,18 L24,20 C24,20.5522847 23.5522847,21 23,21 L21,21 C20.4477153,21 20,20.5522847 20,20 L20,18 C20,17.4477153 20.4477153,17 21,17 L23,17 Z M7,11 C7.55228475,11 8,11.4477153 8,12 L8,14 C8,14.5522847 7.55228475,15 7,15 L5,15 C4.44771525,15 4,14.5522847 4,14 L4,12 C4,11.4477153 4.44771525,11 5,11 L7,11 Z M15,11 C15.5522847,11 16,11.4477153 16,12 L16,14 C16,14.5522847 15.5522847,15 15,15 L13,15 C12.4477153,15 12,14.5522847 12,14 L12,12 C12,11.4477153 12.4477153,11 13,11 L15,11 Z M23,11 C23.5522847,11 24,11.4477153 24,12 L24,14 C24,14.5522847 23.5522847,15 23,15 L21,15 C20.4477153,15 20,14.5522847 20,14 L20,12 C20,11.4477153 20.4477153,11 21,11 L23,11 Z M26,3.3 L2,3.3 C1.64561729,3.3 1.35274177,3.56334362 1.30639017,3.90501415 L1.3,4 L1.3,6.35 L26.7,6.35 L26.7,4 C26.7,3.64561729 26.4366564,3.35274177 26.0949859,3.30639017 L26,3.3 Z" id="Combined-Shape"></path>
                </g>
            </g>
        </g>
    </g>
</svg>