<?xml version="1.0" encoding="UTF-8"?>
<svg width="16px" height="4px" viewBox="0 0 16 4" version="1.1" xmlns="http://www.w3.org/2000/svg" xmlns:xlink="http://www.w3.org/1999/xlink">
    <title>Combined Shape</title>
    <g id="Web-Facebook" stroke="none" stroke-width="1" fill="none" fill-rule="evenodd">
        <g id="01-Topmarq_Home-Copy" transform="translate(-987.000000, -482.000000)" fill="#636874">
            <g id="news" transform="translate(411.000000, 445.000000)">
                <path d="M578,37 C579.104569,37 580,37.8954305 580,39 C580,40.1045695 579.104569,41 578,41 C576.895431,41 576,40.1045695 576,39 C576,37.8954305 576.895431,37 578,37 Z M584,37 C585.104569,37 586,37.8954305 586,39 C586,40.1045695 585.104569,41 584,41 C582.895431,41 582,40.1045695 582,39 C582,37.8954305 582.895431,37 584,37 Z M590,37 C591.104569,37 592,37.8954305 592,39 C592,40.1045695 591.104569,41 590,41 C588.895431,41 588,40.1045695 588,39 C588,37.8954305 588.895431,37 590,37 Z" id="Combined-Shape"></path>
            </g>
        </g>
    </g>
</svg>