<?xml version="1.0" encoding="UTF-8"?>
<svg width="248px" height="16px" viewBox="0 0 248 16" version="1.1" xmlns="http://www.w3.org/2000/svg" xmlns:xlink="http://www.w3.org/1999/xlink">
    <title>Shape</title>
    <g id="Web-Facebook" stroke="none" stroke-width="1" fill="none" fill-rule="evenodd">
        <g id="Login" transform="translate(-928.000000, -562.000000)" fill="#A5A5A5" fill-rule="nonzero">
            <g id="Group-4" transform="translate(819.000000, 131.000000)">
                <path d="M224.627778,431.48 C225.707778,431.48 226.707778,431.66 227.627778,432.02 C228.547778,432.38 229.341111,432.883333 230.007778,433.53 C230.674445,434.176667 231.197778,434.956667 231.577778,435.87 C231.957778,436.783333 232.147778,437.793333 232.147778,438.9 C232.147778,439.993333 231.957778,440.996667 231.577778,441.91 C231.197778,442.823333 230.674445,443.61 230.007778,444.27 C229.341111,444.93 228.547778,445.443333 227.627778,445.81 C226.707778,446.176667 225.707778,446.36 224.627778,446.36 C223.547778,446.36 222.551111,446.176667 221.637778,445.81 C220.724445,445.443333 219.934445,444.93 219.267778,444.27 C218.601111,443.61 218.081111,442.823333 217.707778,441.91 C217.334445,440.996667 217.147778,439.993333 217.147778,438.9 C217.147778,437.793333 217.334445,436.783333 217.707778,435.87 C218.081111,434.956667 218.601111,434.176667 219.267778,433.53 C219.934445,432.883333 220.724445,432.38 221.637778,432.02 C222.551111,431.66 223.547778,431.48 224.627778,431.48 Z M241.61,431.84 L242.014,431.8484 C242.547333,431.8708 243.059333,431.938 243.55,432.05 C244.163333,432.19 244.7,432.413333 245.16,432.72 C245.62,433.026667 245.983333,433.43 246.25,433.93 C246.516667,434.43 246.65,435.04 246.65,435.76 C246.65,436.8 246.33,437.64 245.69,438.28 C245.108182,438.861818 244.372094,439.250799 243.481736,439.446942 L243.21,439.5 L247.17,446 L244.77,446 L241.17,439.7 L239.05,439.7 L239.05,446 L237.07,446 L237.07,431.84 L241.61,431.84 Z M224.627778,433.22 C223.814445,433.22 223.077778,433.37 222.417778,433.67 C221.757778,433.97 221.197778,434.38 220.737778,434.9 C220.277778,435.42 219.921111,436.023333 219.667778,436.71 C219.414445,437.396667 219.287778,438.126667 219.287778,438.9 C219.287778,439.686667 219.414445,440.426667 219.667778,441.12 C219.921111,441.813333 220.281111,442.416667 220.747778,442.93 C221.214445,443.443333 221.774445,443.846667 222.427778,444.14 C223.081111,444.433333 223.814445,444.58 224.627778,444.58 C225.441111,444.58 226.181111,444.433333 226.847778,444.14 C227.514445,443.846667 228.081111,443.443333 228.547778,442.93 C229.014445,442.416667 229.374445,441.813333 229.627778,441.12 C229.881111,440.426667 230.007778,439.686667 230.007778,438.9 C230.007778,438.126667 229.881111,437.396667 229.627778,436.71 C229.374445,436.023333 229.014445,435.42 228.547778,434.9 C228.081111,434.38 227.517778,433.97 226.857778,433.67 C226.197778,433.37 225.454445,433.22 224.627778,433.22 Z M186.5,438 L186.5,440 L109.973159,440 L109.973159,438 L186.5,438 Z M356.5,438 L356.5,440 L279.973159,440 L279.973159,438 L356.5,438 Z M241.47,433.52 L239.05,433.52 L239.05,438.04 L241.33,438.04 C241.796667,438.04 242.23,438 242.63,437.92 C243.03,437.84 243.38,437.71 243.68,437.53 C243.98,437.35 244.216667,437.116667 244.39,436.83 C244.563333,436.543333 244.65,436.186667 244.65,435.76 C244.65,435.333333 244.563333,434.976667 244.39,434.69 C244.216667,434.403333 243.986667,434.173333 243.7,434 C243.413333,433.826667 243.076667,433.703333 242.69,433.63 C242.4,433.575 242.09875,433.540625 241.78625,433.526875 L241.47,433.52 Z" id="Shape"></path>
            </g>
        </g>
    </g>
</svg>