<?xml version="1.0" encoding="UTF-8"?>
<svg width="18px" height="18px" viewBox="0 0 18 18" version="1.1" xmlns="http://www.w3.org/2000/svg" xmlns:xlink="http://www.w3.org/1999/xlink">
    <title>Shape</title>
    <g id="Web-Facebook" stroke="none" stroke-width="1" fill="none" fill-rule="evenodd">
        <g id="01-Topmarq_Home-Copy" transform="translate(-331.000000, -393.000000)" fill="#C6C6C6" fill-rule="nonzero">
            <g id="Group-4" transform="translate(209.000000, 389.000000)">
                <path d="M132,9 L130,9 L130,12 L127,12 L127,14 L130,14 L130,17 L132,17 L132,14 L135,14 L135,12 L132,12 M131,20 C127.134007,20 124,16.8659932 124,13 C124,9.13400675 127.134007,6 131,6 C134.865993,6 138,9.13400675 138,13 C138,16.8659932 134.865993,20 131,20 M131,4 C126.029437,4 122,8.02943725 122,13 C122,17.9705627 126.029437,22 131,22 C135.970563,22 140,17.9705627 140,13 C140,8.02943725 135.970563,4 131,4" id="Shape" transform="translate(131.000000, 13.000000) rotate(-360.000000) translate(-131.000000, -13.000000) "></path>
            </g>
        </g>
    </g>
</svg>