<?xml version="1.0" encoding="UTF-8"?>
<svg width="49px" height="42px" viewBox="0 0 49 42" version="1.1" xmlns="http://www.w3.org/2000/svg" xmlns:xlink="http://www.w3.org/1999/xlink">
    <title>Group 12</title>
    <g id="Web-Facebook" stroke="none" stroke-width="1" fill="none" fill-rule="evenodd">
        <g id="Class-Detail" transform="translate(-1109.000000, -425.000000)">
            <g id="pole" transform="translate(411.000000, 411.000000)">
                <g id="Group-12" transform="translate(698.000000, 14.000000)">
                    <g id="Group-5">
                        <rect id="Rectangle" fill="#EBAE58" x="0" y="0" width="49" height="42" rx="6"></rect>
                        <g id="Add-Post" transform="translate(13.000000, 8.000000)" fill="#FFFFFF" fill-rule="nonzero">
                            <path d="M12.6876769,24.4983267 L8.3771461,19.9619881 L18.8029132,8.99006556 L23.113444,13.5264042 L12.6876769,24.4983267 Z M7.97422448,20.7610637 L11.9283774,24.9223555 L6,27 L7.97422448,20.7610637 Z M24.4392523,12.137146 L23.6915886,12.9239762 L19.3753539,8.38163478 L20.1230175,7.59480465 C20.8761569,6.80173178 22.0974702,6.80173178 22.8506096,7.59480465 L24.4392523,9.26666865 C25.1869159,10.0619025 25.1869159,11.3421522 24.4392523,12.137146 Z" id="Shape"></path>
                            <path d="M6.03364486,12 C6.7364486,12 7.08785047,11.3869159 7.08785047,10.1607477 L7.08785047,10.1607477 L7.08785047,7.08785047 L10.1607477,7.08785047 C11.3869159,7.08785047 12,6.7364486 12,6.03364486 C12,5.30093458 11.3869159,4.93457944 10.1607477,4.93457944 L10.1607477,4.93457944 L7.08785047,4.93457944 L7.08785047,1.83925234 C7.08785047,0.613084112 6.7364486,0 6.03364486,0 C5.28598131,0 4.91214953,0.613084112 4.91214953,1.83925234 L4.91214953,1.83925234 L4.91214953,4.93457944 L1.83925234,4.93457944 C0.613084112,4.93457944 0,5.30093458 0,6.03364486 C0,6.7364486 0.613084112,7.08785047 1.83925234,7.08785047 L1.83925234,7.08785047 L4.91214953,7.08785047 L4.91214953,10.1607477 C4.91214953,11.3869159 5.28598131,12 6.03364486,12 Z" id="+"></path>
                        </g>
                    </g>
                </g>
            </g>
        </g>
    </g>
</svg>