<?xml version="1.0" encoding="UTF-8"?>
<svg width="39px" height="30px" viewBox="0 0 39 30" version="1.1" xmlns="http://www.w3.org/2000/svg" xmlns:xlink="http://www.w3.org/1999/xlink">
    <title>Path</title>
    <g id="Web-Facebook" stroke="none" stroke-width="1" fill="none" fill-rule="evenodd">
        <g id="01-Topmarq_Home-Copy" transform="translate(-933.000000, -445.000000)" fill="#E2AC61" fill-rule="nonzero">
            <g id="news" transform="translate(411.000000, 445.000000)">
                <path d="M561,2 L561,28.0656674 L561,28.0656674 C561,28.7197202 560.472877,29.3242729 559.590088,29.6828169 C558.780946,30.0114822 557.785102,30.0878458 556.878982,29.897312 L556.634291,29.83872 L541.677788,25.807006 C541.593062,25.7840929 541.499008,25.7783646 541.40958,25.7898212 C541.351352,25.8012743 541.293537,25.8147357 541.236238,25.8301812 L526.36562,29.83872 L526.36562,29.83872 C525.965106,29.9466699 525.541053,30 525.11914,30 C524.521223,30 523.927496,29.8930264 523.409912,29.6828169 C522.59503,29.3518022 522.0832,28.8112648 522.009279,28.2156336 L522,28.0656674 L522,2 C522,0.8954305 522.895431,2.02906125e-16 524,0 L559,0 C560.104569,-4.57121451e-15 561,0.8954305 561,2 Z" id="Path"></path>
            </g>
        </g>
    </g>
</svg>