<?xml version="1.0" encoding="UTF-8"?>
<svg width="178px" height="178px" viewBox="0 0 178 178" version="1.1" xmlns="http://www.w3.org/2000/svg" xmlns:xlink="http://www.w3.org/1999/xlink">
    <title>Group 10</title>
    <g id="Web-Facebook" stroke="none" stroke-width="1" fill="none" fill-rule="evenodd">
        <g id="Group-10" transform="translate(-0.000094, 0.000000)">
            <circle id="Oval" fill="#FFFFFF" cx="89.0000942" cy="89" r="89"></circle>
            <path d="M88.8640284,1.13686838e-13 C138.902341,0.125287633 177.455847,40.5618712 177.994273,87.9416786 C178.555008,137.254409 138.53304,177.90874 89.1311309,178 C40.8374261,178.089142 0.0726361763,138.978319 9.41957549e-05,89.0731826 C-0.0702606617,40.393516 39.2791271,0.251478783 88.8640284,1.13686838e-13 Z M88.4463306,8 C43.8694215,8.02835688 8.11466764,44.1967628 8.0000942,88.4506014 C8.07426543,132.969595 44.1112318,169 88.4987932,169 C133.19902,169 168.932668,132.627907 169.000094,88.6172275 C169.067141,44.6535533 133.469775,7.97140873 88.4463306,8 Z M94.5354567,20.1767192 C122.003353,22.1617576 144.032777,39.7061595 153.82239,62.8232239 C154.884646,65.3313941 155.838138,67.8803673 156.588908,70.5030295 L157.000094,72.0669438 L156.153552,72.2170625 L97.4049051,72.2233239 L84.3016725,148.051729 C84.2166217,148.546057 84.0615289,149.038145 84.2816606,149.631403 L85.075665,149.76363 C87.7984703,150.057538 90.5171556,149.998628 93.2467297,149.796606 C96.5395819,149.552964 99.789173,149.050631 102.996386,148.220774 C116.646611,144.688117 127.912174,136.975118 136.796312,125.180065 C143.238401,116.626963 147.407954,106.868135 149.400911,96.0249209 C150.280261,91.2426755 150.685503,86.3995996 150.55366,81.5200253 C150.505003,79.7123961 150.399842,77.9071859 150.216203,76.1096122 L149.879139,73.4196311 C149.842352,73.1743877 149.839703,72.9233815 149.810568,72.5353463 L150.297788,72.3928628 C150.362598,72.3769022 150.422503,72.3670483 150.482441,72.3666214 C152.12872,72.3534948 153.774999,72.3394077 155.420983,72.3589376 C156.175552,72.3679021 156.318285,72.5315044 156.41187,73.3309465 C157.011935,78.4752939 157.176445,83.6260446 156.795924,88.8062501 C155.708214,103.613698 151.007461,116.909025 142.573592,128.557124 C132.285084,142.766511 118.952696,151.754391 102.66766,155.493232 C97.0675448,156.779319 91.3997424,157.224342 85.6966247,156.896177 C77.5964848,156.430023 69.7962302,154.478641 62.341182,150.961993 C61.9574231,150.781102 61.5839643,150.572677 61.2411122,150.394987 C60.9865481,149.831824 61.1375208,149.327571 61.2237489,148.833882 L71.8966043,87.617172 C72.0522857,86.7175195 72.3889577,86.0714345 73.1370523,85.5399672 L91.759753,72.2269567 L31.4182387,72.2274155 L29.3716739,72.2639556 C29.2148733,72.6290516 29.0468943,72.9228946 28.9595814,73.238966 C27.9181718,76.9980239 27.1698191,80.8140235 26.8979106,84.7116291 C26.7625606,86.6531239 26.6398997,88.6010132 26.6447336,90.545553 C26.6704138,101.068784 29.1544492,110.978751 34.0910994,120.249571 C38.4845368,128.49996 44.3818717,135.408081 51.7216687,141.016152 L55.072467,143.457377 C54.7159648,145.732299 54.187858,147.898211 53.7947991,150.026974 C53.5205341,150.200356 53.318923,150.165899 53.142719,150.073825 L52.8101882,149.857367 C49.8497087,148.0057 47.0451233,145.936924 44.4127468,143.637336 C33.1261263,133.776699 25.6015112,121.56958 21.9799919,106.942293 C21.1485561,103.584566 20.6183345,100.176293 20.2968782,96.726912 C19.9473247,92.9806431 19.9134872,89.2298066 20.1588091,85.4887142 C20.6144069,78.5488447 22.0920786,71.817558 24.5631228,65.3158645 C26.3840035,60.5242456 28.6876729,55.982926 31.4904455,51.6998228 L32.4937879,50.2443107 L33.6669221,50.1828016 L136.23716,50.1751891 C136.846839,50.1748846 137.474041,50.2799373 138.030547,50.0664825 C138.156305,49.7563488 138.059948,49.5580619 137.923356,49.3915906 L134.700407,45.8686169 C134.179651,45.3158358 133.649497,44.7730468 133.10145,44.2493061 C124.149013,35.6931482 113.620716,30.1947837 101.496919,27.8251613 C96.493198,26.8471059 91.4438568,26.4661758 86.3652099,26.7709808 C72.6410807,27.5952635 60.4230224,32.3804879 49.7460813,41.1354846 L48.6111922,42.0888648 C48.2817032,42.3459301 48.0903726,42.4143758 47.6570024,42.4285716 L46.1130814,42.4256529 C44.1332852,42.4417914 42.153187,42.4317429 40.1733908,42.4256529 C39.8516324,42.4247394 39.5301761,42.3830229 39.2156686,42.3604898 C39.1307727,41.785593 39.5443758,41.6025882 39.7906041,41.3465034 C44.6674344,36.2768755 50.1723734,32.0309214 56.3129741,28.634828 C63.3167333,24.7615824 70.7624949,22.1934257 78.6541865,20.8986898 C83.9270969,20.033604 89.2302193,19.7933532 94.5354567,20.1767192 Z" id="Shape" fill="#1D4591"></path>
        </g>
    </g>
</svg>